<?xml version="1.0" encoding="UTF-8"?>
<svg xmlns="http://www.w3.org/2000/svg" viewBox="0 0 720 420" width="720" height="420" role="img" aria-label="Urban Air Pollution Index (Monthly)">
  <rect width="720" height="420" fill="#f8fafc" rx="8"/>
  <rect x="8" y="8" width="704" height="404" fill="#ffffff" rx="10" stroke="#e2e8f0" stroke-width="1"/>
<text x="360.0" y="36" text-anchor="middle" font-family="Segoe UI,Arial,sans-serif" font-size="16" font-weight="700" fill="#0f172a">Urban Air Pollution Index (Monthly)</text>
<line x1="70" y1="60" x2="70" y2="340" stroke="#94a3b8" stroke-width="1.5"/>
<line x1="70" y1="340" x2="650" y2="340" stroke="#94a3b8" stroke-width="1.5"/>
<line x1="70" y1="340.0" x2="650" y2="340.0" stroke="#e2e8f0" stroke-width="1"/>
<text x="62" y="344.0" text-anchor="end" font-family="Segoe UI,Arial,sans-serif" font-size="10" fill="#64748b">0.0</text>
<line x1="70" y1="270.0" x2="650" y2="270.0" stroke="#e2e8f0" stroke-width="1"/>
<text x="62" y="274.0" text-anchor="end" font-family="Segoe UI,Arial,sans-serif" font-size="10" fill="#64748b">50</text>
<line x1="70" y1="200.0" x2="650" y2="200.0" stroke="#e2e8f0" stroke-width="1"/>
<text x="62" y="204.0" text-anchor="end" font-family="Segoe UI,Arial,sans-serif" font-size="10" fill="#64748b">100</text>
<line x1="70" y1="130.0" x2="650" y2="130.0" stroke="#e2e8f0" stroke-width="1"/>
<text x="62" y="134.0" text-anchor="end" font-family="Segoe UI,Arial,sans-serif" font-size="10" fill="#64748b">150</text>
<line x1="70" y1="60.0" x2="650" y2="60.0" stroke="#e2e8f0" stroke-width="1"/>
<text x="62" y="64.0" text-anchor="end" font-family="Segoe UI,Arial,sans-serif" font-size="10" fill="#64748b">200</text>
<text x="118.33333333333334" y="358" text-anchor="middle" font-family="Segoe UI,Arial,sans-serif" font-size="10" fill="#64748b">Jan</text>
<text x="215.0" y="358" text-anchor="middle" font-family="Segoe UI,Arial,sans-serif" font-size="10" fill="#64748b">Mar</text>
<text x="311.6666666666667" y="358" text-anchor="middle" font-family="Segoe UI,Arial,sans-serif" font-size="10" fill="#64748b">May</text>
<text x="408.33333333333337" y="358" text-anchor="middle" font-family="Segoe UI,Arial,sans-serif" font-size="10" fill="#64748b">Jul</text>
<text x="505.0" y="358" text-anchor="middle" font-family="Segoe UI,Arial,sans-serif" font-size="10" fill="#64748b">Sep</text>
<text x="601.6666666666667" y="358" text-anchor="middle" font-family="Segoe UI,Arial,sans-serif" font-size="10" fill="#64748b">Nov</text>
<text x="18" y="200.0" text-anchor="middle" transform="rotate(-90 18 200.0)" font-family="Segoe UI,Arial,sans-serif" font-size="11" fill="#64748b">AQI</text>
<path d="M 70.0,116.0 L 186.0,172.0 L 302.0,228.0 L 418.0,263.0 L 534.0,242.0 L 650.0,144.0" fill="none" stroke="#e85d5d" stroke-width="2.5" stroke-linejoin="round"/>
<circle cx="70.0" cy="116.0" r="3.5" fill="#e85d5d" stroke="#fff" stroke-width="1.5"/>
<circle cx="186.0" cy="172.0" r="3.5" fill="#e85d5d" stroke="#fff" stroke-width="1.5"/>
<circle cx="302.0" cy="228.0" r="3.5" fill="#e85d5d" stroke="#fff" stroke-width="1.5"/>
<circle cx="418.0" cy="263.0" r="3.5" fill="#e85d5d" stroke="#fff" stroke-width="1.5"/>
<circle cx="534.0" cy="242.0" r="3.5" fill="#e85d5d" stroke="#fff" stroke-width="1.5"/>
<circle cx="650.0" cy="144.0" r="3.5" fill="#e85d5d" stroke="#fff" stroke-width="1.5"/>
<rect x="40" y="382" width="12" height="12" rx="2" fill="#e85d5d"/>
<text x="56" y="392" font-family="Segoe UI,Arial,sans-serif" font-size="11" fill="#64748b">AQI</text>
</svg>
