<?xml version="1.0" encoding="UTF-8"?>
<svg xmlns="http://www.w3.org/2000/svg" viewBox="0 0 720 420" width="720" height="420" role="img" aria-label="R&amp;D Expenditure as % of GDP">
  <rect width="720" height="420" fill="#f8fafc" rx="8"/>
  <rect x="8" y="8" width="704" height="404" fill="#ffffff" rx="10" stroke="#e2e8f0" stroke-width="1"/>
<text x="360.0" y="36" text-anchor="middle" font-family="Segoe UI,Arial,sans-serif" font-size="16" font-weight="700" fill="#0f172a">R&amp;D Expenditure as % of GDP</text>
<line x1="70" y1="60" x2="70" y2="340" stroke="#94a3b8" stroke-width="1.5"/>
<line x1="70" y1="340" x2="650" y2="340" stroke="#94a3b8" stroke-width="1.5"/>
<line x1="70" y1="340.0" x2="650" y2="340.0" stroke="#e2e8f0" stroke-width="1"/>
<text x="62" y="344.0" text-anchor="end" font-family="Segoe UI,Arial,sans-serif" font-size="10" fill="#64748b">0.0</text>
<line x1="70" y1="270.0" x2="650" y2="270.0" stroke="#e2e8f0" stroke-width="1"/>
<text x="62" y="274.0" text-anchor="end" font-family="Segoe UI,Arial,sans-serif" font-size="10" fill="#64748b">1.1</text>
<line x1="70" y1="200.0" x2="650" y2="200.0" stroke="#e2e8f0" stroke-width="1"/>
<text x="62" y="204.0" text-anchor="end" font-family="Segoe UI,Arial,sans-serif" font-size="10" fill="#64748b">2.2</text>
<line x1="70" y1="130.0" x2="650" y2="130.0" stroke="#e2e8f0" stroke-width="1"/>
<text x="62" y="134.0" text-anchor="end" font-family="Segoe UI,Arial,sans-serif" font-size="10" fill="#64748b">3.3</text>
<line x1="70" y1="60.0" x2="650" y2="60.0" stroke="#e2e8f0" stroke-width="1"/>
<text x="62" y="64.0" text-anchor="end" font-family="Segoe UI,Arial,sans-serif" font-size="10" fill="#64748b">4.4</text>
<text x="128.0" y="358" text-anchor="middle" font-family="Segoe UI,Arial,sans-serif" font-size="10" fill="#64748b">2019</text>
<text x="244.0" y="358" text-anchor="middle" font-family="Segoe UI,Arial,sans-serif" font-size="10" fill="#64748b">2020</text>
<text x="360.0" y="358" text-anchor="middle" font-family="Segoe UI,Arial,sans-serif" font-size="10" fill="#64748b">2021</text>
<text x="476.0" y="358" text-anchor="middle" font-family="Segoe UI,Arial,sans-serif" font-size="10" fill="#64748b">2022</text>
<text x="592.0" y="358" text-anchor="middle" font-family="Segoe UI,Arial,sans-serif" font-size="10" fill="#64748b">2023</text>
<text x="18" y="200.0" text-anchor="middle" transform="rotate(-90 18 200.0)" font-family="Segoe UI,Arial,sans-serif" font-size="11" fill="#64748b">% of GDP</text>
<rect x="87.4" y="135.0" width="27.1" height="205.0" fill="#3d6fd9" rx="2"/>
<text x="100.9" y="131.0" text-anchor="middle" font-size="9" fill="#64748b" font-family="Segoe UI,Arial,sans-serif">3.2</text>
<rect x="114.5" y="205.4" width="27.1" height="134.6" fill="#1a9f63" rx="2"/>
<text x="128.0" y="201.4" text-anchor="middle" font-size="9" fill="#64748b" font-family="Segoe UI,Arial,sans-serif">2.1</text>
<rect x="141.5" y="250.3" width="27.1" height="89.7" fill="#e6a23c" rx="2"/>
<text x="155.1" y="246.3" text-anchor="middle" font-size="9" fill="#64748b" font-family="Segoe UI,Arial,sans-serif">1.4</text>
<rect x="203.4" y="128.6" width="27.1" height="211.4" fill="#3d6fd9" rx="2"/>
<text x="216.9" y="124.6" text-anchor="middle" font-size="9" fill="#64748b" font-family="Segoe UI,Arial,sans-serif">3.3</text>
<rect x="230.5" y="192.6" width="27.1" height="147.4" fill="#1a9f63" rx="2"/>
<text x="244.0" y="188.6" text-anchor="middle" font-size="9" fill="#64748b" font-family="Segoe UI,Arial,sans-serif">2.3</text>
<rect x="257.5" y="250.3" width="27.1" height="89.7" fill="#e6a23c" rx="2"/>
<text x="271.1" y="246.3" text-anchor="middle" font-size="9" fill="#64748b" font-family="Segoe UI,Arial,sans-serif">1.4</text>
<rect x="319.4" y="115.7" width="27.1" height="224.3" fill="#3d6fd9" rx="2"/>
<text x="332.9" y="111.7" text-anchor="middle" font-size="9" fill="#64748b" font-family="Segoe UI,Arial,sans-serif">3.5</text>
<rect x="346.5" y="179.8" width="27.1" height="160.2" fill="#1a9f63" rx="2"/>
<text x="360.0" y="175.8" text-anchor="middle" font-size="9" fill="#64748b" font-family="Segoe UI,Arial,sans-serif">2.5</text>
<rect x="373.5" y="243.9" width="27.1" height="96.1" fill="#e6a23c" rx="2"/>
<text x="387.1" y="239.9" text-anchor="middle" font-size="9" fill="#64748b" font-family="Segoe UI,Arial,sans-serif">1.5</text>
<rect x="435.4" y="109.3" width="27.1" height="230.7" fill="#3d6fd9" rx="2"/>
<text x="448.9" y="105.3" text-anchor="middle" font-size="9" fill="#64748b" font-family="Segoe UI,Arial,sans-serif">3.6</text>
<rect x="462.5" y="160.6" width="27.1" height="179.4" fill="#1a9f63" rx="2"/>
<text x="476.0" y="156.6" text-anchor="middle" font-size="9" fill="#64748b" font-family="Segoe UI,Arial,sans-serif">2.8</text>
<rect x="489.5" y="243.9" width="27.1" height="96.1" fill="#e6a23c" rx="2"/>
<text x="503.1" y="239.9" text-anchor="middle" font-size="9" fill="#64748b" font-family="Segoe UI,Arial,sans-serif">1.5</text>
<rect x="551.4" y="96.5" width="27.1" height="243.5" fill="#3d6fd9" rx="2"/>
<text x="564.9" y="92.5" text-anchor="middle" font-size="9" fill="#64748b" font-family="Segoe UI,Arial,sans-serif">3.8</text>
<rect x="578.5" y="147.8" width="27.1" height="192.2" fill="#1a9f63" rx="2"/>
<text x="592.0" y="143.8" text-anchor="middle" font-size="9" fill="#64748b" font-family="Segoe UI,Arial,sans-serif">3.0</text>
<rect x="605.5" y="237.5" width="27.1" height="102.5" fill="#e6a23c" rx="2"/>
<text x="619.1" y="233.5" text-anchor="middle" font-size="9" fill="#64748b" font-family="Segoe UI,Arial,sans-serif">1.6</text>
<rect x="40" y="382" width="12" height="12" rx="2" fill="#3d6fd9"/>
<text x="56" y="392" font-family="Segoe UI,Arial,sans-serif" font-size="11" fill="#64748b">Country A</text>
<rect x="132.5" y="382" width="12" height="12" rx="2" fill="#1a9f63"/>
<text x="148.5" y="392" font-family="Segoe UI,Arial,sans-serif" font-size="11" fill="#64748b">Country B</text>
<rect x="225.0" y="382" width="12" height="12" rx="2" fill="#e6a23c"/>
<text x="241.0" y="392" font-family="Segoe UI,Arial,sans-serif" font-size="11" fill="#64748b">Country C</text>
</svg>
