<?xml version="1.0" encoding="UTF-8"?>
<svg xmlns="http://www.w3.org/2000/svg" viewBox="0 0 720 420" width="720" height="420" role="img" aria-label="Print Book Borrowing (Declining Trend)">
  <rect width="720" height="420" fill="#f8fafc" rx="8"/>
  <rect x="8" y="8" width="704" height="404" fill="#ffffff" rx="10" stroke="#e2e8f0" stroke-width="1"/>
<text x="360.0" y="36" text-anchor="middle" font-family="Segoe UI,Arial,sans-serif" font-size="16" font-weight="700" fill="#0f172a">Print Book Borrowing (Declining Trend)</text>
<line x1="70" y1="60" x2="70" y2="340" stroke="#94a3b8" stroke-width="1.5"/>
<line x1="70" y1="340" x2="650" y2="340" stroke="#94a3b8" stroke-width="1.5"/>
<line x1="70" y1="340.0" x2="650" y2="340.0" stroke="#e2e8f0" stroke-width="1"/>
<text x="62" y="344.0" text-anchor="end" font-family="Segoe UI,Arial,sans-serif" font-size="10" fill="#64748b">0.0</text>
<line x1="70" y1="270.0" x2="650" y2="270.0" stroke="#e2e8f0" stroke-width="1"/>
<text x="62" y="274.0" text-anchor="end" font-family="Segoe UI,Arial,sans-serif" font-size="10" fill="#64748b">34</text>
<line x1="70" y1="200.0" x2="650" y2="200.0" stroke="#e2e8f0" stroke-width="1"/>
<text x="62" y="204.0" text-anchor="end" font-family="Segoe UI,Arial,sans-serif" font-size="10" fill="#64748b">69</text>
<line x1="70" y1="130.0" x2="650" y2="130.0" stroke="#e2e8f0" stroke-width="1"/>
<text x="62" y="134.0" text-anchor="end" font-family="Segoe UI,Arial,sans-serif" font-size="10" fill="#64748b">104</text>
<line x1="70" y1="60.0" x2="650" y2="60.0" stroke="#e2e8f0" stroke-width="1"/>
<text x="62" y="64.0" text-anchor="end" font-family="Segoe UI,Arial,sans-serif" font-size="10" fill="#64748b">138</text>
<text x="106.25" y="358" text-anchor="middle" font-family="Segoe UI,Arial,sans-serif" font-size="10" fill="#64748b">2015</text>
<text x="178.75" y="358" text-anchor="middle" font-family="Segoe UI,Arial,sans-serif" font-size="10" fill="#64748b">2016</text>
<text x="251.25" y="358" text-anchor="middle" font-family="Segoe UI,Arial,sans-serif" font-size="10" fill="#64748b">2017</text>
<text x="323.75" y="358" text-anchor="middle" font-family="Segoe UI,Arial,sans-serif" font-size="10" fill="#64748b">2018</text>
<text x="396.25" y="358" text-anchor="middle" font-family="Segoe UI,Arial,sans-serif" font-size="10" fill="#64748b">2019</text>
<text x="468.75" y="358" text-anchor="middle" font-family="Segoe UI,Arial,sans-serif" font-size="10" fill="#64748b">2020</text>
<text x="541.25" y="358" text-anchor="middle" font-family="Segoe UI,Arial,sans-serif" font-size="10" fill="#64748b">2021</text>
<text x="613.75" y="358" text-anchor="middle" font-family="Segoe UI,Arial,sans-serif" font-size="10" fill="#64748b">2022</text>
<text x="18" y="200.0" text-anchor="middle" transform="rotate(-90 18 200.0)" font-family="Segoe UI,Arial,sans-serif" font-size="11" fill="#64748b">Thousands</text>
<path d="M 70.0,96.5 L 152.9,112.8 L 235.7,127.0 L 318.6,147.2 L 401.4,161.4 L 484.3,238.6 L 567.1,228.4 L 650.0,218.3" fill="none" stroke="#e85d5d" stroke-width="2.5" stroke-linejoin="round"/>
<circle cx="70.0" cy="96.5" r="3.5" fill="#e85d5d" stroke="#fff" stroke-width="1.5"/>
<circle cx="152.9" cy="112.8" r="3.5" fill="#e85d5d" stroke="#fff" stroke-width="1.5"/>
<circle cx="235.7" cy="127.0" r="3.5" fill="#e85d5d" stroke="#fff" stroke-width="1.5"/>
<circle cx="318.6" cy="147.2" r="3.5" fill="#e85d5d" stroke="#fff" stroke-width="1.5"/>
<circle cx="401.4" cy="161.4" r="3.5" fill="#e85d5d" stroke="#fff" stroke-width="1.5"/>
<circle cx="484.3" cy="238.6" r="3.5" fill="#e85d5d" stroke="#fff" stroke-width="1.5"/>
<circle cx="567.1" cy="228.4" r="3.5" fill="#e85d5d" stroke="#fff" stroke-width="1.5"/>
<circle cx="650.0" cy="218.3" r="3.5" fill="#e85d5d" stroke="#fff" stroke-width="1.5"/>
<path d="M 70.0,299.4 L 152.9,283.2 L 235.7,269.0 L 318.6,248.7 L 401.4,228.4 L 484.3,157.4 L 567.1,147.2 L 650.0,137.1" fill="none" stroke="#3d6fd9" stroke-width="2.5" stroke-linejoin="round"/>
<circle cx="70.0" cy="299.4" r="3.5" fill="#3d6fd9" stroke="#fff" stroke-width="1.5"/>
<circle cx="152.9" cy="283.2" r="3.5" fill="#3d6fd9" stroke="#fff" stroke-width="1.5"/>
<circle cx="235.7" cy="269.0" r="3.5" fill="#3d6fd9" stroke="#fff" stroke-width="1.5"/>
<circle cx="318.6" cy="248.7" r="3.5" fill="#3d6fd9" stroke="#fff" stroke-width="1.5"/>
<circle cx="401.4" cy="228.4" r="3.5" fill="#3d6fd9" stroke="#fff" stroke-width="1.5"/>
<circle cx="484.3" cy="157.4" r="3.5" fill="#3d6fd9" stroke="#fff" stroke-width="1.5"/>
<circle cx="567.1" cy="147.2" r="3.5" fill="#3d6fd9" stroke="#fff" stroke-width="1.5"/>
<circle cx="650.0" cy="137.1" r="3.5" fill="#3d6fd9" stroke="#fff" stroke-width="1.5"/>
<rect x="40" y="382" width="12" height="12" rx="2" fill="#e85d5d"/>
<text x="56" y="392" font-family="Segoe UI,Arial,sans-serif" font-size="11" fill="#64748b">Print loans (k)</text>
<rect x="171.5" y="382" width="12" height="12" rx="2" fill="#3d6fd9"/>
<text x="187.5" y="392" font-family="Segoe UI,Arial,sans-serif" font-size="11" fill="#64748b">Digital (k)</text>
</svg>
